<svg xmlns="http://www.w3.org/2000/svg" viewBox="0 0 823.34 823.24"><defs><style>.cls-1{fill:#fff;}</style></defs><title>connect-icon-svg</title><g id="Layer_2" data-name="Layer 2"><g id="Layer_1-2" data-name="Layer 1"><path class="cls-1" d="M675.09,296.42c-32.3,0-64.59.07-96.89,0-25-.08-44.52-15.09-49.94-38.49a61.11,61.11,0,0,1-1.38-13.57q-.14-96.1,0-192.2c0-25.75,15-45.41,38.78-50.8A62.34,62.34,0,0,1,579.2.06Q675,0,770.87,0c31.23,0,52.36,20.92,52.4,52.07q.13,96.09,0,192.19c0,31.14-21.16,52.09-52.35,52.13Q723,296.48,675.09,296.42Zm115.13-148.2q0-47.67,0-95.34C790.2,39,784.29,33,770.4,33H579.73c-13.9,0-19.82,5.95-19.82,19.84q0,95.34,0,190.67c0,13.9,5.93,19.86,19.81,19.86q95.32,0,190.67,0c13.88,0,19.81-6,19.82-19.85Q790.24,195.88,790.22,148.22Z"/><path class="cls-1" d="M0,674.48c0-31.94-.07-63.89,0-95.83.07-25.47,15-45,38.55-50.44a61,61,0,0,1,13.57-1.35q96.09-.12,192.19,0c30.87,0,52.06,21,52.11,51.83q.16,96.36,0,192.72c-.05,30.82-21.25,51.81-52.11,51.83q-96.09.07-192.19,0C21.11,823.18.1,802.06,0,770.84Q-.06,722.66,0,674.48Zm263.39,1.07q0-47.94,0-95.87c0-13.91-5.92-19.85-19.81-19.85q-95.34,0-190.68,0c-13.89,0-19.82,5.94-19.82,19.83q0,95.34,0,190.68c0,13.89,5.93,19.85,19.81,19.86q95.33,0,190.67,0c13.88,0,19.82-6,19.83-19.85Q263.44,723,263.42,675.55Z"/><path class="cls-1" d="M477.62,131.63c0,10.6.11,20.57-.18,30.52,0,1-2.37,2.36-3.86,2.8-6.35,1.88-13.06,2.83-19.15,5.3-16.45,6.68-24.52,19.67-25.92,37-.35,4.36-.3,8.77-.3,13.16q0,192.48,0,385c0,14.9-1.84,29.43-8.67,42.91-12.14,24-32.7,36.26-58.24,41.38-4.77,1-9.66,1.31-15,2v-32c8.1-2.39,16.06-4,23.39-7.06,15.74-6.61,23.52-19.31,25.1-36,.41-4.36.35-8.77.35-13.16q0-193,0-386c0-21.49,4.34-41.56,19.07-58.09C430.81,140.71,452.54,133.4,477.62,131.63Z"/></g></g></svg>